<?xml version="1.0" encoding="UTF-8"?>
<svg aria-hidden="true" xmlns="http://www.w3.org/2000/svg">
  <symbol id="icon-linkedin" viewBox="0 0 24 24">
    <path d="M4.98 3.5a2.5 2.5 0 1 0 0 5 2.5 2.5 0 0 0 0-5ZM3.5 9h3v12h-3zM10 9h2.9v1.7h.1c.4-.8 1.4-1.7 3-1.7 3.2 0 3.8 2.1 3.8 4.8V21h-3v-6.3c0-1.5 0-3.3-2-3.3s-2.3 1.6-2.3 3.2V21H10z" fill="currentColor"/>
  </symbol>

  <symbol id="icon-facebook" viewBox="0 0 24 24">
    <path d="M9 8h2V6.5C11 4.57 12.57 3 14.5 3H17v3h-2.5a.5.5 0 0 0-.5.5V8h3v3h-3v10h-3V11H9V8z" fill="currentColor"/>
  </symbol>

  <symbol id="icon-twitter" viewBox="0 0 24 24">
    <path d="M22 5.8c-.7.3-1.5.6-2.3.7.8-.5 1.4-1.3 1.7-2.2-.8.5-1.7.9-2.6 1.1A4 4 0 0 0 12 8.7c0 .3 0 .6.1.9-3.3-.2-6.2-1.8-8.2-4.2-.3.6-.4 1.2-.4 1.9 0 1.3.7 2.5 1.7 3.2-.6 0-1.2-.2-1.7-.5 0 0 0 0 0 .1 0 1.9 1.4 3.4 3.2 3.8-.3.1-.7.1-1 .1-.2 0-.5 0-.7-.1.5 1.5 1.9 2.6 3.6 2.6A8.1 8.1 0 0 1 2 19.3 11.4 11.4 0 0 0 8.3 21c6.8 0 10.5-5.6 10.5-10.5v-.5c.7-.5 1.3-1.2 1.7-2z" fill="currentColor"/>
  </symbol>

  <symbol id="icon-instagram" viewBox="0 0 24 24">
    <rect x="2" y="2" width="20" height="20" rx="5" ry="5" fill="none" stroke="currentColor" stroke-width="2"/>
    <circle cx="12" cy="12" r="4" fill="none" stroke="currentColor" stroke-width="2"/>
    <circle cx="17.5" cy="6.5" r="1.2" fill="currentColor"/>
  </symbol>

  <symbol id="icon-strategy" viewBox="0 0 64 64" fill="none" xmlns="http://www.w3.org/2000/svg">
<path d="M59.5463 44.1952L42.6599 27.1851L44.534 17.9541C45.0176 18.1429 45.5318 18.2416 46.0508 18.2453H46.0636C48.4482 18.2735 50.404 16.3633 50.4323 13.9788C50.4606 11.5943 48.5503 9.6384 46.1658 9.61013C43.7812 9.582 41.8254 11.4921 41.7971 13.8767C41.7911 14.3869 41.8755 14.8941 42.0466 15.3749L32.1266 16.5856L15.9452 0.32C15.7467 0.117467 15.4757 0.00226667 15.1921 0C14.9121 0.00146667 14.644 0.112933 14.4455 0.3104L11.4204 3.3184C11.004 3.73493 11.004 4.41013 11.4204 4.82667L13.0481 6.47787C6.74201 18.0737 8.79028 32.4335 18.0871 41.8037C18.1724 41.8853 18.2713 41.9513 18.3793 41.9989C18.3121 42.3599 18.2771 42.7261 18.2748 43.0933V55.4667H5.47481C2.53081 55.4701 0.144946 57.856 0.141479 60.8V62.9333C0.141479 63.5224 0.61908 64 1.20815 64H50.2748C50.8639 64 51.3415 63.5224 51.3415 62.9333V60.8C51.338 57.856 48.9522 55.4701 46.0082 55.4667H33.2082V49.9829C35.2134 50.4035 37.2564 50.6179 39.3052 50.6229C44.2215 50.6176 49.0595 49.392 53.3852 47.056L55.0215 48.7019C55.22 48.9044 55.491 49.0196 55.7746 49.0219C56.0546 49.0204 56.3227 48.9089 56.5212 48.7115L59.5463 45.7035C59.9627 45.2869 59.9627 44.6117 59.5463 44.1952ZM44.5596 12.4661C45.395 11.6352 46.7458 11.6389 47.5766 12.4743C48.4075 13.3096 48.4038 14.6604 47.5684 15.4912C47.1686 15.8889 46.6275 16.1121 46.0635 16.112H46.0571C44.879 16.1059 43.9287 15.1459 43.9348 13.9676C43.9378 13.4036 44.1639 12.8639 44.5638 12.4661H44.5596ZM42.0487 19.4752L40.8519 25.3664L38.5009 23.0016L42.0487 19.4752ZM40.837 17.6715L36.997 21.4891L34.0263 18.5024L40.837 17.6715ZM46.0082 57.6C47.7755 57.6 49.2082 59.0327 49.2082 60.8V61.8667H2.27481V60.8C2.27481 59.0327 3.70748 57.6 5.47481 57.6H46.0082ZM31.0748 53.3333V55.4667H20.4081V53.3333H31.0748ZM20.4081 51.2V43.0933C20.4081 40.5056 22.8007 38.4 25.7415 38.4C28.6823 38.4 31.0748 40.5056 31.0748 43.0933V51.2H20.4081ZM33.2082 47.808V43.0933C33.2082 39.3291 29.8588 36.2667 25.7415 36.2667C23.0793 36.2259 20.59 37.5809 19.1793 39.8389C11.0639 31.2913 9.23641 18.5485 14.6221 8.06467L51.8258 45.4816C46.081 48.404 39.4955 49.2268 33.2082 47.808ZM55.7863 46.4405L54.2834 44.9291L15.1815 5.59147L13.6721 4.07893L15.1815 2.57493L31.0513 18.5344C31.0588 18.5344 31.0631 18.5483 31.0706 18.5536L57.2999 44.9365L55.7863 46.4405Z" fill="#2E2F42"/>
<path d="M25.7511 40.5333H25.7415C23.9742 40.5306 22.5394 41.9612 22.5367 43.7285C22.534 45.4958 23.9646 46.9306 25.7319 46.9333H25.7415C27.5088 46.936 28.9436 45.5054 28.9463 43.7381C28.9489 41.9708 27.5184 40.536 25.7511 40.5333ZM26.4978 44.4896C26.297 44.6893 26.0248 44.801 25.7415 44.8C25.1524 44.7969 24.6774 44.3169 24.6804 43.7278C24.6819 43.4458 24.795 43.176 24.9948 42.977C25.1934 42.7796 25.4615 42.6681 25.7415 42.6666C26.3306 42.6697 26.8056 43.1497 26.8026 43.7388C26.8011 44.0208 26.688 44.2906 26.4882 44.4896H26.4978Z" fill="#4D5AE5"/>  </symbol>

  <symbol id="icon-technologies" viewBox="0 0 64 64" fill="none" xmlns="http://www.w3.org/2000/svg">
<path d="M63.9481 9.04812C63.8222 8.66299 63.4895 8.38149 63.0873 8.32274L59.2665 7.76698L57.5566 4.30455C57.1983 3.57492 56.0025 3.57492 55.6441 4.30455L53.9342 7.76698L50.1133 8.32286C49.7112 8.38149 49.3784 8.66212 49.2514 9.04825C49.1266 9.43438 49.23 9.85889 49.5213 10.1416L52.2872 12.8372L51.6344 16.6431C51.5662 17.0431 51.7304 17.4474 52.0579 17.6864C52.3897 17.9275 52.8227 17.9573 53.1822 17.7674L56.5999 15.97L60.0176 17.7674C60.1733 17.8495 60.3451 17.89 60.5147 17.89C60.7354 17.89 60.9563 17.8218 61.1419 17.6863C61.4704 17.4474 61.6347 17.043 61.5654 16.643L60.9127 12.8371L63.6786 10.1415C63.9684 9.85776 64.073 9.43425 63.9481 9.04812ZM59.0223 11.702C58.7717 11.9463 58.6564 12.3004 58.7162 12.6461L59.098 14.8743L57.097 13.8226C56.9413 13.7404 56.7706 13.6999 56.5999 13.6999C56.4292 13.6999 56.2596 13.7404 56.1027 13.8226L54.1016 14.8743L54.4835 12.6461C54.5432 12.3004 54.428 11.9474 54.1773 11.702L52.5571 10.1234L54.795 9.79801C55.1427 9.74788 55.4425 9.52926 55.5982 9.2145L56.5988 7.18785L57.5993 9.2145C57.755 9.52913 58.0548 9.74788 58.4025 9.79801L60.6404 10.1234L59.0223 11.702Z" fill="#4D5AE5"/>
<path d="M52.2669 41.0444H50.1335V43.1778H52.2669V41.0444Z" fill="#4D5AE5"/>
<path d="M52.2669 45.3112H50.1335V47.4446H52.2669V45.3112Z" fill="#4D5AE5"/>
<path d="M54.4003 43.1778H52.2669V45.3112H54.4003V43.1778Z" fill="#4D5AE5"/>
<path d="M50.1337 43.1778H48.0003V45.3112H50.1337V43.1778Z" fill="#4D5AE5"/>
<path d="M44.8002 52.778H42.6668V54.9113H44.8002V52.778Z" fill="#4D5AE5"/>
<path d="M44.8002 57.0446H42.6668V59.1781H44.8002V57.0446Z" fill="#4D5AE5"/>
<path d="M46.9336 54.9113H44.8002V57.0448H46.9336V54.9113Z" fill="#4D5AE5"/>
<path d="M42.6668 54.9113H40.5334V57.0448H42.6668V54.9113Z" fill="#4D5AE5"/>
<path d="M32 48.5113H29.8666V50.6447H32V48.5113Z" fill="#4D5AE5"/>
<path d="M32 52.778H29.8666V54.9113H32V52.778Z" fill="#4D5AE5"/>
<path d="M34.1334 50.6445H32V52.7779H34.1334V50.6445Z" fill="#4D5AE5"/>
<path d="M29.8666 50.6445H27.7332V52.7779H29.8666V50.6445Z" fill="#4D5AE5"/>
<path d="M11.733 12.2439H9.59964V14.3773H11.733V12.2439Z" fill="#4D5AE5"/>
<path d="M11.733 16.5108H9.59964V18.6442H11.733V16.5108Z" fill="#4D5AE5"/>
<path d="M13.8663 14.3774H11.7329V16.5108H13.8663V14.3774Z" fill="#4D5AE5"/>
<path d="M9.59964 14.3774H7.46624V16.5108H9.59964V14.3774Z" fill="#4D5AE5"/>
<path d="M49.4295 28.3189C48.8546 27.5434 48.0109 27.0443 47.053 26.9098C46.0909 26.7733 45.1415 27.026 44.3734 27.6138L41.8699 29.5327L41.8688 29.5338L38.0735 32.368L35.3577 31.2864C40.2004 29.1136 43.5851 24.2698 43.5851 18.6462C43.5851 11.0002 37.3396 4.77933 29.6627 4.77933C21.9858 4.77933 15.7405 11.0002 15.7405 18.6462C15.7405 21.4175 16.5693 23.9945 17.9805 26.163L12.4529 26.115C12.4497 26.115 12.4466 26.115 12.4433 26.115C12.4262 26.115 12.4124 26.1235 12.3964 26.1247C12.2908 26.1289 12.1873 26.1503 12.0861 26.1865C12.0604 26.1962 12.0338 26.2015 12.0093 26.2132C11.9966 26.2185 11.9837 26.2195 11.9709 26.2259L5.50471 29.4185C5.50359 29.4185 5.50259 29.4185 5.50259 29.4195L1.71578 31.2405C1.67415 31.2586 1.63153 31.2831 1.5899 31.3109C0.0805013 32.3156 -0.433632 34.289 0.393131 35.9018C0.833638 36.7594 1.58352 37.391 2.50516 37.68C2.86042 37.7908 3.22305 37.8453 3.58356 37.8453C4.16282 37.8453 4.7367 37.7035 5.26246 37.423L8.038 35.9467L12.5661 33.6085L15.2797 33.5925L4.39632 44.4237C4.39532 44.4248 4.39419 44.4248 4.39307 44.4258L1.71565 47.0925C1.08314 47.7219 0.735387 48.557 0.735387 49.4478C0.735387 50.3374 1.08314 51.1747 1.71565 51.8052C2.36529 52.4516 3.21968 52.7758 4.07406 52.7758C4.92958 52.7758 5.78284 52.4516 6.4346 51.8052L9.06289 49.1875L12.5446 46.588L14.3462 48.3821L10.8229 51.8904C10.8219 51.8916 10.8208 51.8916 10.8197 51.8926L8.14225 54.5592C7.50974 55.1886 7.16199 56.0237 7.16199 56.9145C7.16199 57.8041 7.50974 58.6414 8.14225 59.2719C8.79189 59.9183 9.6474 60.2426 10.5018 60.2426C11.3562 60.2426 12.2117 59.9183 12.8623 59.2719L15.5407 56.6052L19.8256 52.3386C19.8267 52.3374 19.8267 52.3364 19.8277 52.3353L21.847 50.3353L21.8395 50.3278C21.8522 50.315 21.8703 50.3106 21.8832 50.2969L32.2151 38.9805L39.1571 39.9682C39.2072 39.9757 39.2574 39.9789 39.3075 39.9789C39.4366 39.9789 39.5614 39.948 39.6819 39.9021C39.7171 39.8894 39.748 39.8722 39.7811 39.8552C39.8195 39.836 39.86 39.8254 39.8964 39.8009L46.3231 35.5342C46.3466 35.5182 46.3594 35.4925 46.3817 35.4755C46.4074 35.4553 46.4394 35.4468 46.4627 35.4243L49.0056 33.0424C50.3288 31.8026 50.5112 29.7717 49.4295 28.3189ZM4.26082 35.5403C3.91419 35.7259 3.52056 35.7632 3.14405 35.6438C2.77067 35.5275 2.46779 35.2725 2.29066 34.928C1.96853 34.3008 2.15516 33.537 2.71942 33.1243L5.34671 31.8602L5.97922 33.7088L6.24485 34.4853L4.26082 35.5403ZM11.2551 31.8849L8.1585 33.4849L7.64762 31.9915L7.28074 30.9184L11.3342 28.9172L11.2551 31.8849ZM41.4539 18.644C41.4539 20.4808 41.0155 22.2132 40.256 23.763L31.8933 19.9646C31.8057 18.8179 31.2106 17.8142 30.3167 17.189L33.2448 7.46837C38.0001 8.98102 41.4539 13.4173 41.4539 18.644ZM17.876 18.644C17.876 12.1746 23.1646 6.91049 29.665 6.91049C30.1706 6.91049 30.6655 6.95311 31.1551 7.01499L28.2911 16.5224C28.2527 16.5213 28.2164 16.5106 28.1769 16.5106C26.1118 16.5106 24.4318 18.1853 24.4318 20.2441C24.4318 22.3027 26.1118 23.9775 28.1769 23.9775C29.5657 23.9775 30.7657 23.2106 31.4132 22.0883L39.1381 25.5978C36.9887 28.4906 33.5487 30.3776 29.6648 30.3776C23.1646 30.3776 17.876 25.1135 17.876 18.644ZM29.7887 20.2441C29.7887 21.1262 29.0655 21.8441 28.1769 21.8441C27.2884 21.8441 26.5652 21.1262 26.5652 20.2441C26.5652 19.3619 27.2884 18.644 28.1769 18.644C29.0655 18.644 29.7887 19.3619 29.7887 20.2441ZM4.9297 50.2925C4.4572 50.7608 3.69231 50.7598 3.22093 50.2936C2.99367 50.0664 2.86892 49.7668 2.86892 49.4478C2.86892 49.1299 2.99367 48.8301 3.22093 48.6051L5.14508 46.6882L6.84748 48.3832L4.9297 50.2925ZM11.3574 57.7594C10.8849 58.2276 10.119 58.2288 9.64753 57.7605C9.42027 57.5333 9.29552 57.2336 9.29552 56.9146C9.29552 56.5967 9.42027 56.297 9.64753 56.072L11.5729 54.1541L12.3783 54.9552L13.2765 55.8491L11.3574 57.7594ZM18.3208 50.8217C18.3197 50.8227 18.3187 50.8227 18.3175 50.8238L14.7879 54.3438L13.9825 53.5427L13.0843 52.6488L16.6108 49.1384C16.6108 49.1384 16.6108 49.1384 16.6108 49.1374C16.6119 49.1363 16.6129 49.1363 16.614 49.1353C16.694 49.0553 16.7441 48.9593 16.7933 48.8644C16.8071 48.8366 16.8338 48.8131 16.8455 48.7844C16.8786 48.7023 16.8839 48.6138 16.8968 48.5272C16.9031 48.4781 16.9245 48.4324 16.9245 48.3821C16.9245 48.3106 16.8989 48.2414 16.884 48.1709C16.8713 48.1069 16.8713 48.0417 16.8466 47.98C16.8061 47.8797 16.7368 47.7912 16.6643 47.7047C16.644 47.6812 16.6365 47.6514 16.6141 47.629C16.6141 47.629 16.6141 47.629 16.613 47.629C16.6119 47.628 16.6119 47.6257 16.6109 47.6247L13.397 44.4247C13.3628 44.3906 13.3191 44.3767 13.2807 44.3479C13.2242 44.3042 13.1698 44.2637 13.1068 44.2327C13.0461 44.2028 12.9842 44.1847 12.9202 44.1676C12.852 44.1483 12.7858 44.1334 12.7143 44.1281C12.6492 44.1238 12.5884 44.1302 12.5234 44.1377C12.4519 44.1462 12.3848 44.1558 12.3154 44.1782C12.2482 44.1996 12.1886 44.2326 12.1267 44.2678C12.0872 44.2902 12.0424 44.2977 12.0051 44.3254L8.45838 46.973L6.65673 45.1788L11.4547 40.4065L20.1759 48.9838L18.3208 50.8217ZM31.9584 36.7883C31.9275 36.7841 31.8986 36.7958 31.8678 36.7937C31.7899 36.7894 31.7153 36.7948 31.6374 36.8076C31.5766 36.8182 31.519 36.8299 31.4614 36.8502C31.3931 36.8737 31.3312 36.9057 31.2682 36.9441C31.2085 36.9803 31.1541 37.0187 31.1019 37.0667C31.0762 37.0891 31.0454 37.0998 31.0219 37.1253L21.6253 47.4167L12.9692 38.9035L18.6354 33.2671C19.0525 32.8511 19.0547 32.1759 18.6387 31.7577C18.4285 31.5476 18.1523 31.4441 17.876 31.4452V31.4442L13.4386 31.4709L13.4941 28.2559L19.7022 28.3093C22.2324 30.8971 25.7609 32.511 29.665 32.511C30.5396 32.511 31.393 32.4204 32.2239 32.2656C32.3039 32.3296 32.3828 32.3948 32.4831 32.4353L37.3025 34.3553L37.6075 35.8721L37.9637 37.6427L31.9584 36.7883ZM40.0406 37.1446L39.4145 34.0288L42.3073 31.8687L43.0647 32.8735L44.2007 34.3818L40.0406 37.1446ZM47.5479 31.4826L45.8721 33.0528L44.0097 30.5802L45.6726 29.3056C45.983 29.0667 46.3745 28.9696 46.7585 29.0197C47.1446 29.0741 47.486 29.2757 47.7185 29.5882C48.1516 30.1717 48.078 30.9856 47.5479 31.4826Z" fill="#2E2F42"/>
<path d="M27.2042 37.0881L22.9182 32.8214C22.5033 32.4065 21.8291 32.4065 21.4131 32.8214L17.1283 37.0881C16.9278 37.2897 16.8146 37.5606 16.8146 37.8443C16.8146 38.1281 16.9266 38.4001 17.1283 38.6006L21.4131 42.8673C21.6211 43.0742 21.8942 43.1777 22.1662 43.1777C22.4382 43.1777 22.7112 43.0742 22.9182 42.8673L27.2042 38.6006C27.4047 38.4001 27.5188 38.1281 27.5188 37.8443C27.5188 37.5606 27.4057 37.2886 27.2042 37.0881ZM22.1662 40.606L19.3928 37.8443L22.1662 35.0827L24.9406 37.8443L22.1662 40.606Z" fill="#2E2F42"/>
<path d="M34.3285 10.1415L33.8133 12.2131C33.9552 12.2483 37.2886 13.1166 37.2886 16.5108H39.422C39.4219 12.4765 36.0907 10.5799 34.3285 10.1415Z" fill="#2E2F42"/>
<path d="M39.422 18.644H37.2886V20.7775H39.422V18.644Z" fill="#2E2F42"/>  </symbol>

  <symbol id="icon-diligence" viewBox="0 0 64 64" fill="none" xmlns="http://www.w3.org/2000/svg">
   <g clip-path="url(#clip0_302815_4209)">
<path d="M29.851 29.9292H31.9833V39.5242H29.851V29.9292Z" fill="#4D5AE5"/>
<path d="M38.3799 34.1936H40.5121V39.5242H38.3799V34.1936Z" fill="#4D5AE5"/>
<path d="M21.3222 37.392H23.4544V39.5242H21.3222V37.392Z" fill="#4D5AE5"/>
<path d="M14.9255 36.3258H17.0577V39.5241H14.9255V36.3258Z" fill="#4D5AE5"/>
<path d="M3.19833 56.5819H54.3715C56.1378 56.5819 57.5699 55.1499 57.5699 53.3836V49.1192C57.5699 47.3529 56.1378 45.9209 54.3715 45.9209H53.3054V19.3343L59.3611 13.5977C60.7666 14.2905 62.4678 13.8699 63.3876 12.6003C64.308 11.3312 64.1789 9.58364 63.0826 8.46339C61.9863 7.34314 60.2424 7.17604 58.953 8.06776C57.6641 8.96 57.206 10.6513 57.8681 12.0719L53.3054 16.3973V13.9376C53.3054 12.1713 51.8734 10.7393 50.1071 10.7393H7.46276C5.6965 10.7393 4.26443 12.1713 4.26443 13.9376V45.9209H3.19833C1.43206 45.9209 0 47.3529 0 49.1192V53.3836C0 55.1499 1.43206 56.5819 3.19833 56.5819ZM60.7682 9.67317C61.3569 9.67317 61.8343 10.1505 61.8343 10.7393C61.8343 11.328 61.3569 11.8054 60.7682 11.8054C60.1794 11.8054 59.7021 11.328 59.7021 10.7393C59.7021 10.1505 60.1794 9.67317 60.7682 9.67317ZM6.39665 13.9376C6.39665 13.3489 6.874 12.8715 7.46276 12.8715H50.1071C50.6958 12.8715 51.1732 13.3489 51.1732 13.9376V18.4149L49.041 20.441V16.0698C49.041 15.4811 48.5636 15.0037 47.9749 15.0037H9.59498C9.00622 15.0037 8.52887 15.4811 8.52887 16.0698V42.7225C8.52887 43.3113 9.00622 43.7886 9.59498 43.7886H47.9749C48.5636 43.7886 49.041 43.3113 49.041 42.7225V23.3738L51.1732 21.3535V45.9209H6.39665V13.9376ZM15.9916 27.797C14.5492 27.7929 13.2826 28.7538 12.899 30.1442C12.5153 31.5346 13.1093 33.0094 14.3498 33.7455C15.5898 34.4815 17.1697 34.2967 18.2061 33.2936L21.912 35.1531C22.3425 35.3686 22.8646 35.2676 23.1847 34.9079L31.0624 26.0453L38.8062 31.848C39.2216 32.1593 39.8016 32.126 40.1784 31.7694L46.9088 25.3941V41.6564H10.6611V17.1359H46.9088V22.4566L39.3658 29.5997L31.5569 23.7455C31.1134 23.4134 30.4892 23.4758 30.1207 23.8897L22.1348 32.8751L19.1493 31.3821C19.1712 31.2541 19.1847 31.125 19.19 30.9953C19.19 29.2291 17.7579 27.797 15.9916 27.797ZM17.0577 30.9953C17.0577 31.5841 16.5804 32.0615 15.9916 32.0615C15.4029 32.0615 14.9255 31.5841 14.9255 30.9953C14.9255 30.4066 15.4029 29.9292 15.9916 29.9292C16.5804 29.9292 17.0577 30.4066 17.0577 30.9953ZM23.4544 48.0531H34.1155V49.1192C34.1155 49.7079 33.6381 50.1853 33.0494 50.1853H24.5205C23.9317 50.1853 23.4544 49.7079 23.4544 49.1192V48.0531ZM2.13222 49.1192C2.13222 48.5304 2.60957 48.0531 3.19833 48.0531H21.3222V49.1192C21.3222 50.8855 22.7542 52.3175 24.5205 52.3175H33.0494C34.8156 52.3175 36.2477 50.8855 36.2477 49.1192V48.0531H54.3715C54.9603 48.0531 55.4376 48.5304 55.4376 49.1192V53.3836C55.4376 53.9724 54.9603 54.4497 54.3715 54.4497H3.19833C2.60957 54.4497 2.13222 53.9724 2.13222 53.3836V49.1192Z" fill="#2E2F42"/>
</g>
<defs>
<clipPath id="clip0_302815_4209">
<rect width="64" height="64" fill="white"/>
</clipPath>
</defs>
  </symbol>

  <symbol id="icon-punctuality" viewBox="0 0 64 64" fill="none" xmlns="http://www.w3.org/2000/svg">
<path d="M62.5933 30.6025C62.5899 13.6978 48.8828 -0.00341734 31.9775 6.39362e-07C15.0728 0.00341861 1.37158 13.7109 1.375 30.6157C1.37793 43.9316 9.98877 55.7178 22.6738 59.7681C22.7949 59.8062 22.9209 59.8257 23.0474 59.8252C23.2886 59.8247 23.5249 59.7603 23.7324 59.6377C24.0024 59.478 24.2041 59.2241 24.2988 58.9248L32.0288 34.4248C34.1421 34.4141 35.8462 32.6919 35.835 30.5791C35.8242 28.4658 34.1025 26.7617 31.9893 26.7725C31.4209 26.7749 30.8599 26.9058 30.3491 27.1553L20.1372 16.9419C19.6304 16.4526 18.8232 16.4668 18.334 16.9731C17.8564 17.4678 17.8564 18.251 18.334 18.7456L28.5405 28.9639C27.7573 30.5625 28.2051 32.4922 29.6133 33.582L22.248 56.9277C7.69238 51.5659 0.239258 35.4199 5.60108 20.8643C10.9629 6.30859 27.1089 -1.14453 41.6646 4.21729C56.2202 9.5791 63.6733 25.7256 58.3115 40.2808C55.6919 47.3921 50.3096 53.1431 43.3872 56.2275L42.5913 52.479C42.4458 51.79 41.7686 51.3496 41.0796 51.4956C40.8623 51.542 40.6606 51.6441 40.4946 51.792L32.8208 58.6431C32.2944 59.1113 32.2476 59.9175 32.7163 60.4439C32.8687 60.6148 33.064 60.7417 33.2827 60.8115L43.0801 63.9385C43.7505 64.1538 44.4688 63.7852 44.6841 63.1143C44.7524 62.9024 44.7637 62.6768 44.7178 62.459L43.9356 58.7808C55.2642 54.0049 62.6196 42.8965 62.5933 30.6025ZM31.9844 29.3272C32.6885 29.3272 33.2598 29.8984 33.2598 30.6025C33.2598 31.3071 32.6885 31.8779 31.9844 31.8779C31.2798 31.8779 30.709 31.3071 30.709 30.6025C30.709 29.8984 31.2798 29.3272 31.9844 29.3272ZM36.1851 59.0552L40.5532 55.1587L41.7588 60.8394L36.1851 59.0552Z" fill="#2E2F42"/>
<path d="M30.709 6.37012V8.9209C30.709 9.62549 31.2798 10.1963 31.9844 10.1963C32.6885 10.1963 33.2598 9.62549 33.2598 8.9209V6.37012C33.2598 5.66602 32.6885 5.09473 31.9844 5.09473C31.2798 5.09473 30.709 5.66602 30.709 6.37012Z" fill="#4D5AE5"/>
<path d="M7.75195 29.3271C7.04736 29.3271 6.47656 29.8984 6.47656 30.6025C6.47656 31.3071 7.04736 31.8779 7.75195 31.8779H10.3027C11.0073 31.8779 11.5781 31.3071 11.5781 30.6025C11.5781 29.8984 11.0073 29.3271 10.3027 29.3271H7.75195Z" fill="#4D5AE5"/>
<path d="M56.2162 31.8779C56.9208 31.8779 57.4916 31.3071 57.4916 30.6025C57.4916 29.8984 56.9208 29.3271 56.2162 29.3271H53.6655C52.9614 29.3271 52.3901 29.8984 52.3901 30.6025C52.3901 31.3071 52.9614 31.8779 53.6655 31.8779H56.2162Z" fill="#4D5AE5"/></symbol>

<symbol id="icon-person" viewBox="0 0 18 18">
  <path d="M9 9C10.6575 9 12 7.6575 12 6C12 4.3425 10.6575 3 9 3C7.3425 3 6 4.3425 6 6C6 7.6575 7.3425 9 9 9ZM9 10.5C6.9975 10.5 3 11.505 3 13.5V14.25C3 14.6625 3.3375 15 3.75 15H14.25C14.6625 15 15 14.6625 15 14.25V13.5C15 11.505 11.0025 10.5 9 10.5Z" fill="currentColor"/>
</symbol>

<symbol id="icon-phone" viewBox="0 0 18 24" fill="none" xmlns="http://www.w3.org/2000/svg">
<g clip-path="url(#clip0_297083_8305)">
<path d="M14.7263 13.8651L12.8881 13.6552C12.4467 13.6046 12.0125 13.7566 11.7013 14.0677L10.3697 15.3993C8.3217 14.3572 6.64276 12.6855 5.60067 10.6303L6.93947 9.29144C7.25065 8.98025 7.40263 8.54605 7.35197 8.1046L7.1421 6.28092C7.05526 5.55 6.44013 5 5.70198 5H4.45002C3.63226 5 2.952 5.68026 3.00266 6.49802C3.38621 12.6783 8.32894 17.6138 14.5019 17.9973C15.3197 18.048 15.9999 17.3677 15.9999 16.55V15.298C16.0072 14.5671 15.4572 13.952 14.7263 13.8651Z" fill="#2E2F42"/>
</g>
<defs>
<clipPath id="clip0_297083_8305">
<rect width="18" height="24" fill="white"/>
</clipPath>
</defs></symbol>

<symbol id="icon-email" viewBox="0 0 18 24" fill="none" xmlns="http://www.w3.org/2000/svg">
<g clip-path="url(#clip0_297083_8311)">
<path d="M15 6H3C2.175 6 1.5075 6.675 1.5075 7.5L1.5 16.5C1.5 17.325 2.175 18 3 18H15C15.825 18 16.5 17.325 16.5 16.5V7.5C16.5 6.675 15.825 6 15 6ZM14.7 9.1875L9.3975 12.5025C9.1575 12.6525 8.8425 12.6525 8.6025 12.5025L3.3 9.1875C3.1125 9.0675 3 8.865 3 8.6475C3 8.145 3.5475 7.845 3.975 8.1075L9 11.25L14.025 8.1075C14.4525 7.845 15 8.145 15 8.6475C15 8.865 14.8875 9.0675 14.7 9.1875Z" fill="#2E2F42"/>
</g>
<defs>
<clipPath id="clip0_297083_8311">
<rect width="18" height="24" fill="white"/>
</clipPath>
</defs></symbol>

<symbol id="icon-check" viewBox="0 0 16 16" fill="none" xmlns="http://www.w3.org/2000/svg">
<rect x="0.5" y="0.5" width="15" height="15" rx="1.5" fill="#404BBF"/>
<rect x="0.5" y="0.5" width="15" height="15" rx="1.5" stroke="#404BBF"/>
<path d="M11.4456 4.25506C11.6184 4.08965 11.8483 3.99821 12.0869 4.00003C12.3255 4.00184 12.5541 4.09677 12.7244 4.26478C12.8947 4.4328 12.9934 4.66075 12.9997 4.90055C13.006 5.14034 12.9194 5.37323 12.7582 5.55005L7.86357 11.7044C7.7794 11.7955 7.67782 11.8686 7.5649 11.9194C7.45198 11.9702 7.33003 11.9975 7.20636 11.9998C7.08268 12.0021 6.95981 11.9793 6.8451 11.9328C6.73038 11.8863 6.62618 11.817 6.53872 11.729L3.29283 8.46564C3.20243 8.38096 3.12993 8.27884 3.07965 8.16537C3.02936 8.05191 3.00232 7.92942 3.00014 7.80522C2.99796 7.68102 3.02069 7.55765 3.06696 7.44248C3.11323 7.3273 3.18211 7.22267 3.26947 7.13483C3.35684 7.047 3.4609 6.97775 3.57547 6.93123C3.69003 6.88471 3.81273 6.86186 3.93627 6.86405C4.0598 6.86624 4.18163 6.89343 4.29449 6.94398C4.40734 6.99454 4.50892 7.06743 4.59315 7.15831L7.16189 9.73967L11.4223 4.28219C11.4299 4.27269 11.4381 4.26364 11.4468 4.25506H11.4456Z" fill="#F4F4FD"/></symbol>

<symbol id="icon-send" viewBox="0 0 24 24" fill="none" xmlns="http://www.w3.org/2000/svg">
<path d="M24 2L0 13.25L7.66994 15.6172L19.5 6.375L10.5017 16.4913L10.509 16.4936L10.5 16.4913V22L14.8013 17.8183L20.2501 19.5L24 2Z" fill="white"/>
</symbol>

<symbol id="icon-close" viewBox="0 0 24 24">
  <path d="M16 8 L8 16 M8 8 L16 16"
        stroke="currentColor" stroke-width="1.5"
        stroke-linecap="round" stroke-linejoin="round" />
</symbol>



</svg>